<?xml version="1.0" encoding="UTF-8" standalone="no"?>
<!DOCTYPE svg PUBLIC "-//W3C//DTD SVG 1.1//EN" "http://www.w3.org/Graphics/SVG/1.1/DTD/svg11.dtd">
<svg version="1.1" xmlns="http://www.w3.org/2000/svg" xmlns:xlink="http://www.w3.org/1999/xlink" preserveAspectRatio="xMidYMid meet" viewBox="0 0 640 640" width="640" height="640"><defs><path d="M603.72 0C603.72 266.88 603.72 433.68 603.72 500.4C603.72 500.75 603.58 501.07 603.34 501.32C584.83 519.81 538.57 566.04 464.55 640L464.51 0L603.72 0Z" id="byy3lomwr"></path><path d="M464.56 415.02L603.72 275.85C667.51 275.85 667.51 275.85 603.72 275.85C539.92 275.85 350.89 275.85 36.62 275.85L36.62 415.06L464.56 415.02Z" id="ccte2GsIz"></path><path d="M36.62 640C36.62 373.12 36.62 206.32 36.62 139.6C36.62 139.26 36.76 138.93 37 138.69C55.5 120.2 101.77 73.97 175.78 0L175.83 640L36.62 640Z" id="aqBvKiBZF"></path><path d="M36.61 275.85C36.61 275.85 36.61 275.85 36.61 275.85C120.14 275.85 166.54 275.85 175.82 275.85C175.82 275.85 175.82 275.85 175.82 275.85C175.82 359.38 175.82 405.78 175.82 415.06C175.82 415.06 175.82 415.06 175.82 415.06C92.3 415.06 45.89 415.06 36.61 415.06C36.61 415.06 36.61 415.06 36.61 415.06C36.61 331.53 36.61 285.13 36.61 275.85Z" id="aov3sGFkU"></path><path d="M603.55 500.94L598.37 506.11L593.28 511.2L588.28 516.2L583.36 521.11L578.53 525.93L573.79 530.67L569.13 535.32L564.57 539.88L560.09 544.35L555.69 548.74L551.38 553.04L547.16 557.26L543.03 561.39L538.99 565.43L535.03 569.38L531.16 573.25L527.37 577.03L523.67 580.72L520.06 584.33L516.54 587.85L513.1 591.28L509.75 594.63L506.49 597.89L503.31 601.06L500.23 604.15L497.22 607.14L494.31 610.06L491.48 612.88L488.74 615.62L486.09 618.27L483.52 620.83L481.04 623.31L478.65 625.7L476.35 628L474.13 630.22L472 632.35L469.95 634.39L468 636.35L466.13 638.21L464.39 639.95L464.39 640L462.69 641.69L461.08 643.3L459.55 644.82L458.12 646.25L456.76 647.6L455.5 648.86L454.33 650.03L453.24 651.12L452.24 652.12L451.32 653.03L450.49 653.86L449.75 654.6L449.1 655.25L448.53 655.81L448.05 656.29L447.66 656.68L447.35 656.99L447.13 657.2L447 657.33L446.96 657.38L447 657.33L447.13 657.2L447.35 656.99L447.65 656.68L448.04 656.29L448.52 655.81L449.08 655.25L449.73 654.6L450.47 653.86L451.3 653.03L452.21 652.12L453.21 651.12L454.3 650.03L455.47 648.86L456.73 647.6L458.08 646.25L459.52 644.82L461.04 643.3L462.65 641.69L464.34 640L464.39 639.95L464.34 415.06L220.73 415.01L36.45 415.01L36.45 275.85L603.55 275.85L603.55 500.94Z" id="a4Vp2cEYBI"></path><radialGradient id="gradienta375uAerIT" gradientUnits="userSpaceOnUse" cx="679.18" cy="371.32" dx="2596.95" dy="-460.65" r="2090.46"><stop style="stop-color: #ffffff;stop-opacity: 0.1" offset="0%"></stop><stop style="stop-color: #ffffff;stop-opacity: 0" offset="100%"></stop></radialGradient><path d="M243.19 276.07L175.72 275.85L175.72 415.06L243.19 276.07Z" id="bwPz2Mdi"></path><linearGradient id="gradientifzDgDJcX" gradientUnits="userSpaceOnUse" x1="209.45" y1="408.18" x2="209.45" y2="304.5"><stop style="stop-color: #1a237e;stop-opacity: 0.4" offset="0%"></stop><stop style="stop-color: #1a237e;stop-opacity: 0" offset="100%"></stop></linearGradient></defs><g><g><g><use xlink:href="#byy3lomwr" opacity="1" fill="#39cefd" fill-opacity="1"></use><g><use xlink:href="#byy3lomwr" opacity="1" fill-opacity="0" stroke="#000000" stroke-width="1" stroke-opacity="0"></use></g></g><g><use xlink:href="#ccte2GsIz" opacity="1" fill="#03569b" fill-opacity="1"></use><g><use xlink:href="#ccte2GsIz" opacity="1" fill-opacity="0" stroke="#000000" stroke-width="1" stroke-opacity="0"></use></g></g><g><use xlink:href="#aqBvKiBZF" opacity="1" fill="#39cefd" fill-opacity="1"></use><g><use xlink:href="#aqBvKiBZF" opacity="1" fill-opacity="0" stroke="#000000" stroke-width="1" stroke-opacity="0"></use></g></g><g><use xlink:href="#aov3sGFkU" opacity="1" fill="#16b9fd" fill-opacity="1"></use><g><use xlink:href="#aov3sGFkU" opacity="1" fill-opacity="0" stroke="#000000" stroke-width="1" stroke-opacity="0"></use></g></g><g><use xlink:href="#a4Vp2cEYBI" opacity="1" fill="url(#gradienta375uAerIT)"></use><g><use xlink:href="#a4Vp2cEYBI" opacity="1" fill-opacity="0" stroke="#000000" stroke-width="1" stroke-opacity="0"></use></g></g><g><use xlink:href="#bwPz2Mdi" opacity="1" fill="url(#gradientifzDgDJcX)"></use><g><use xlink:href="#bwPz2Mdi" opacity="1" fill-opacity="0" stroke="#000000" stroke-width="1" stroke-opacity="0"></use></g></g></g></g></svg>